/* XPM */
static char * freicoin32_xpm[] = {
"32 32 437 2",
"  	c None",
". 	c #006F8A",
"+ 	c #60C9E3",
"@ 	c #69D7F2",
"# 	c #64D5F0",
"$ 	c #69E2FF",
"% 	c #68E2FF",
"& 	c #66D6F1",
"* 	c #73DDF6",
"= 	c #7DD8ED",
"- 	c #48B9D2",
"; 	c #2B7688",
"> 	c #51B5CE",
", 	c #5FE4FF",
"' 	c #38D8FF",
") 	c #2CD5FF",
"! 	c #26D3FF",
"~ 	c #26D4FF",
"{ 	c #1ED2FF",
"] 	c #17D1FF",
"^ 	c #15D1FF",
"/ 	c #11D0FF",
"( 	c #44DBFF",
"_ 	c #51D7F8",
": 	c #4FC6E3",
"< 	c #002C4C",
"[ 	c #103C47",
"} 	c #4FB5CE",
"| 	c #4BE2FF",
"1 	c #CFF6FF",
"2 	c #32D7FF",
"3 	c #31D7FF",
"4 	c #2AD4FF",
"5 	c #24D4FF",
"6 	c #21D3FF",
"7 	c #19D1FF",
"8 	c #0FD0FF",
"9 	c #0ACFFF",
"0 	c #1CD3FF",
"a 	c #47CFF0",
"b 	c #2D889F",
"c 	c #006D83",
"d 	c #166173",
"e 	c #62E2FF",
"f 	c #4EDCFF",
"g 	c #6EE3FF",
"h 	c #B8F1FF",
"i 	c #81E6FF",
"j 	c #25D4FF",
"k 	c #1DD2FF",
"l 	c #14D1FF",
"m 	c #10D0FF",
"n 	c #0BCFFF",
"o 	c #0CCFFF",
"p 	c #09CFFF",
"q 	c #07CEFF",
"r 	c #2CDCFF",
"s 	c #3D9BB2",
"t 	c #000000",
"u 	c #3694AC",
"v 	c #1D758B",
"w 	c #67EAFF",
"x 	c #56DEFF",
"y 	c #4FDCFF",
"z 	c #78E4FF",
"A 	c #BCF2FF",
"B 	c #CAF4FF",
"C 	c #20D3FF",
"D 	c #1FD2FF",
"E 	c #09CEFF",
"F 	c #06CEFF",
"G 	c #05CDFF",
"H 	c #08CEFF",
"I 	c #0AD2FF",
"J 	c #46AAC2",
"K 	c #00040C",
"L 	c #C9FFFF",
"M 	c #216372",
"N 	c #6FECFF",
"O 	c #5FDFFF",
"P 	c #55DEFF",
"Q 	c #40DAFF",
"R 	c #A6EDFF",
"S 	c #D7F7FF",
"T 	c #AFEFFF",
"U 	c #98EBFF",
"V 	c #16D1FF",
"W 	c #0BCEFF",
"X 	c #04CDFF",
"Y 	c #03CDFF",
"Z 	c #05CEFF",
"` 	c #03CFFF",
" .	c #44A4BC",
"..	c #2B6E7D",
"+.	c #71E1FC",
"@.	c #67E1FF",
"#.	c #5BDFFF",
"$.	c #50DDFF",
"%.	c #42DAFF",
"&.	c #B6F1FF",
"*.	c #B1EFFF",
"=.	c #B9F1FF",
"-.	c #D2F6FF",
";.	c #13D0FF",
">.	c #12D0FF",
",.	c #0ACEFF",
"'.	c #02CDFF",
").	c #00CCFE",
"!.	c #02CDFE",
"~.	c #09D3FF",
"{.	c #39889B",
"].	c #3D98AE",
"^.	c #5BB7CD",
"/.	c #70E2FE",
"(.	c #65E0FF",
"_.	c #50DCFF",
":.	c #3AD8FF",
"<.	c #ABEFFF",
"[.	c #C1F3FF",
"}.	c #BEF2FF",
"|.	c #C3F3FF",
"1.	c #8AE8FF",
"2.	c #07CDFF",
"3.	c #04CDFE",
"4.	c #02CCFE",
"5.	c #01CCFE",
"6.	c #2AE0FF",
"7.	c #25616F",
"8.	c #92C9D5",
"9.	c #49B3CB",
"0.	c #7EE9FF",
"a.	c #70E2FF",
"b.	c #66E1FF",
"c.	c #59DEFF",
"d.	c #4CDCFF",
"e.	c #69E1FF",
"f.	c #B5F0FF",
"g.	c #C2F3FF",
"h.	c #B3F0FF",
"i.	c #CCF5FF",
"j.	c #08CFFF",
"k.	c #0ED0FF",
"l.	c #06CDFF",
"m.	c #3FB8D6",
"n.	c #50C8E5",
"o.	c #7CE0F8",
"p.	c #7BE4FF",
"q.	c #6FE3FF",
"r.	c #59DFFF",
"s.	c #5FE0FF",
"t.	c #B5F1FF",
"u.	c #C8F4FF",
"v.	c #90E9FF",
"w.	c #95EAFF",
"x.	c #77E4FF",
"y.	c #01CDFE",
"z.	c #01CBFD",
"A.	c #00CBFD",
"B.	c #19D7FF",
"C.	c #3890A6",
"D.	c #73E0FA",
"E.	c #87E8FF",
"F.	c #7BE5FF",
"G.	c #63E0FF",
"H.	c #58DFFF",
"I.	c #54DDFF",
"J.	c #CBF5FF",
"K.	c #BFF3FF",
"L.	c #4BDCFF",
"M.	c #84E6FF",
"N.	c #03CDFE",
"O.	c #01CDFF",
"P.	c #3DC0E1",
"Q.	c #75CCDF",
"R.	c #88E9FF",
"S.	c #87E7FF",
"T.	c #7CE6FF",
"U.	c #71E3FF",
"V.	c #66E0FF",
"W.	c #4EDDFF",
"X.	c #3FD9FF",
"Y.	c #C0F3FF",
"Z.	c #94EAFF",
"`.	c #47DBFF",
" +	c #48DBFF",
".+	c #0ECFFF",
"++	c #7CE5FF",
"@+	c #00CCFF",
"#+	c #0FCFFF",
"$+	c #41DCFF",
"%+	c #0699BB",
"&+	c #7DD6EA",
"*+	c #93EAFF",
"=+	c #88E8FF",
"-+	c #7DE5FF",
";+	c #72E3FF",
">+	c #5CDEFF",
",+	c #45DAFF",
"'+	c #7AE5FF",
")+	c #9BEBFF",
"!+	c #65E1FF",
"~+	c #3CD9FF",
"{+	c #36D7FF",
"]+	c #03CEFF",
"^+	c #00CDFE",
"/+	c #5ED0EB",
"(+	c #8BE0F4",
"_+	c #7FE5FF",
":+	c #74E4FF",
"<+	c #5DE0FF",
"[+	c #52DDFF",
"}+	c #64E0FF",
"|+	c #C6F4FF",
"1+	c #33D6FF",
"2+	c #13D1FF",
"3+	c #8CE8FF",
"4+	c #00CBFF",
"5+	c #0DCFFF",
"6+	c #5AD1EE",
"7+	c #8EDEF0",
"8+	c #8CE9FF",
"9+	c #82E7FF",
"0+	c #76E4FF",
"a+	c #6BE2FF",
"b+	c #61DFFF",
"c+	c #4BDBFF",
"d+	c #88E7FF",
"e+	c #A5EDFF",
"f+	c #74E3FF",
"g+	c #2AD5FF",
"h+	c #ADEFFF",
"i+	c #4DDCFF",
"j+	c #5DDFFF",
"k+	c #5BDAF8",
"l+	c #96EBFF",
"m+	c #8FE9FF",
"n+	c #84E7FF",
"o+	c #79E4FF",
"p+	c #6EE2FF",
"q+	c #64E1FF",
"r+	c #89E8FF",
"s+	c #C0F2FF",
"t+	c #43DAFF",
"u+	c #24D3FF",
"v+	c #ACEFFF",
"w+	c #7EE5FF",
"x+	c #D0F5FF",
"y+	c #8EE8FF",
"z+	c #18D1FF",
"A+	c #1DD3FF",
"B+	c #57D0EE",
"C+	c #91E9FF",
"D+	c #9BECFF",
"E+	c #73E4FF",
"F+	c #68E1FF",
"G+	c #5EDFFF",
"H+	c #D4F7FF",
"I+	c #33D7FF",
"J+	c #9FECFF",
"K+	c #BBF2FF",
"L+	c #73E3FF",
"M+	c #22D4FF",
"N+	c #5DD1EF",
"O+	c #84DBEF",
"P+	c #A0ECFF",
"Q+	c #92EAFF",
"R+	c #86E7FF",
"S+	c #8EE9FF",
"T+	c #AAEEFF",
"U+	c #D3F6FF",
"V+	c #95EBFF",
"W+	c #53DDFF",
"X+	c #2FD6FF",
"Y+	c #C5F3FF",
"Z+	c #00CDFF",
"`+	c #12D1FF",
" @	c #1ED3FF",
".@	c #23D4FF",
"+@	c #6CDDF9",
"@@	c #76DCF4",
"#@	c #D0F6FF",
"$@	c #C7F4FF",
"%@	c #B0EFFF",
"&@	c #6AE1FF",
"*@	c #28D5FF",
"=@	c #6FE2FF",
"-@	c #75E4FF",
";@	c #8BE8FF",
">@	c #29D5FF",
",@	c #2BD5FF",
"'@	c #74D8F0",
")@	c #52CBE8",
"!@	c #A5EEFF",
"~@	c #9CECFF",
"{@	c #92E9FF",
"]@	c #A1ECFF",
"^@	c #C1F2FF",
"/@	c #C4F3FF",
"(@	c #B7F1FF",
"_@	c #BDF2FF",
":@	c #49DBFF",
"<@	c #1CD2FF",
"[@	c #20D2FF",
"}@	c #27D4FF",
"|@	c #30D6FF",
"1@	c #32D6FF",
"2@	c #83DBEF",
"3@	c #78CEE1",
"4@	c #89E3F9",
"5@	c #A2EDFF",
"6@	c #9DEBFF",
"7@	c #B1F0FF",
"8@	c #5CDFFF",
"9@	c #6CE2FF",
"0@	c #6DE2FF",
"a@	c #56DDFF",
"b@	c #26D5FF",
"c@	c #28D4FF",
"d@	c #58E0FF",
"e@	c #5CC2DA",
"f@	c #6ECCE2",
"g@	c #AAEFFF",
"h@	c #99EBFF",
"i@	c #8DE8FF",
"j@	c #A1EDFF",
"k@	c #9AEBFF",
"l@	c #A7EDFF",
"m@	c #5ADFFF",
"n@	c #4ADBFF",
"o@	c #ADEEFF",
"p@	c #BAF2FF",
"q@	c #A2ECFF",
"r@	c #C6F3FF",
"s@	c #47DAFF",
"t@	c #35D7FF",
"u@	c #37D8FF",
"v@	c #3CD8FF",
"w@	c #40D9FF",
"x@	c #60DBF9",
"y@	c #47A9BE",
"z@	c #A3E7F7",
"A@	c #9CEBFF",
"B@	c #55DDFF",
"C@	c #4ADCFF",
"D@	c #44DAFF",
"E@	c #A8EEFF",
"F@	c #B6F0FF",
"G@	c #C9F4FF",
"H@	c #46DAFF",
"I@	c #3ED9FF",
"J@	c #41D9FF",
"K@	c #45DBFF",
"L@	c #52DEFF",
"M@	c #41B9D6",
"N@	c #A4F5FF",
"O@	c #66B4C7",
"P@	c #ADF1FF",
"Q@	c #97EAFF",
"R@	c #57DEFF",
"S@	c #B0F0FF",
"T@	c #4FC6E2",
"U@	c #00050E",
"V@	c #4DA0B2",
"W@	c #91D2E2",
"X@	c #A8EDFF",
"Y@	c #B2F0FF",
"Z@	c #75E3FF",
"`@	c #5EE0FF",
" #	c #9DECFF",
".#	c #A5F0FF",
"+#	c #135566",
"@#	c #4C99AA",
"##	c #ADEDFD",
"$#	c #7FE6FF",
"%#	c #61E0FF",
"&#	c #5BDEFF",
"*#	c #58DEFF",
"=#	c #62E5FF",
"-#	c #338A9F",
";#	c #B8FFFF",
">#	c #5098A9",
",#	c #B3F4FF",
"'#	c #72E4FF",
")#	c #6EE8FF",
"!#	c #39889C",
"~#	c #92E2F4",
"{#	c #529EB1",
"]#	c #AFEEFE",
"^#	c #A9EEFF",
"/#	c #A4EDFF",
"(#	c #86E8FF",
"_#	c #7AE4FF",
":#	c #78E5FF",
"<#	c #70E3FF",
"[#	c #78EDFF",
"}#	c #268096",
"|#	c #000C17",
"1#	c #B5FFFF",
"2#	c #53ABBF",
"3#	c #98DFF1",
"4#	c #A6EEFF",
"5#	c #97EBFF",
"6#	c #8DE9FF",
"7#	c #83E7FF",
"8#	c #80E6FF",
"9#	c #7DE6FF",
"0#	c #7BE6FF",
"a#	c #63C2D9",
"b#	c #1E7084",
"c#	c #129BB3",
"d#	c #56B7CD",
"e#	c #76D6EE",
"f#	c #A3EDFF",
"g#	c #9EECFF",
"h#	c #9AECFF",
"i#	c #96EAFF",
"j#	c #89EBFF",
"k#	c #7CD8EC",
"l#	c #408A9B",
"m#	c #2D7382",
"n#	c #729CA5",
"o#	c #5CD1ED",
"p#	c #84E3F9",
"q#	c #6DD4ED",
"r#	c #58B6CC",
"s#	c #378699",
"t#	c #ADFFFF",
"u#	c #73C8DC",
"v#	c #77D8EE",
"w#	c #89DDF1",
"x#	c #94E4F8",
"y#	c #91DCEE",
"z#	c #8DDAED",
"A#	c #89E2F7",
"B#	c #75D6EE",
"C#	c #5CD2EF",
"D#	c #7AD4E9",
"                      . + @ # $ % & * = -                       ",
"                  ; > , ' ) ! ~ { ] ^ / ( _ : <                 ",
"              [ } | 1 2 3 4 5 6 7 ^ ^ 8 / 9 0 a b               ",
"          c d e f g h i ) j { k l m m n o p 9 q r s t           ",
"        u v w x y z A B C 6 D l / 8 E q q F G q H I J K         ",
"      L M N O P Q R S T U { V / / W F H X G Y Z X G `  .t       ",
"      ..+.@.#.$.%.&.*.=.-.;.] >.,.H H '.).!.).'.Y X G ~.{.      ",
"    ].^./.(.#._.:.<.[.}.|.1.m o n 2.Y ).3.).4.).5.4.X q 6.7.    ",
"  8.9.0.a.b.c.d.e.}.f.g.h.i.j.k.q X X !.).5.5.).5.).X l.F m.t   ",
"  n.o.p.q.(.r.f s.t.[.u.v.w.x.,.H q ).y.!.z.A.).5.).Y Z p B.C.  ",
"  D.E.F.a.G.H.f I.J.K.i.O L.M.^ q X N.5.).).5.O.).).Y Z p n P.  ",
"Q.R.S.T.U.V.c.W.X.Y.Z.w.`. +.+++@+G N.5.).5.).5.5.5.X F ,.#+$+%+",
"&+*+=+-+;+@.>+_.,+'+)+!+~+{+k $ ]+F X 4.5.^+5.).5.Y X H o 8 >./+",
"(+Z.1._+:+$ <+[+ +}+|+s.X.1+2+3+Y H O.4+).5.5.O.X X q E 5+>./ 6+",
"7+w.8+9+0+a+b+P c+d+e+f+I.%.g+h+i+I.G.++j+4+X X G q E o m ^ ] k+",
"l+U m+n+o+p+q+c.i+r+s+o+t+u+6 v+x w+S.)+x+y+9 q H 9 5+8 l z+A+B+",
"C+D+C+d+w+E+F+G+y r+H+++,+I+J+f o+h.f.T K+L+M.o 5+.+/ l z+{ M+N+",
"O+P+Q+R+'+f+:+S+T+U+V+W+X+h.i.|+Y+v.m+o+Z+8 k.m `+l ^ 7  @.@~ +@",
"@@[.[.#@S =.-.$@Y.%@&@q+L.t+*@=@-@F+p -+;@5+] V V 7 k C 5 >@,@'@",
")@!@~@{@Z.[.A ]@%@^@/@m+C+-.(@_@m+:@I+*@~ C+O <@[@C .@}@) |@1@2@",
"3@4@5@)+C+n+P+)+6@n+7@L.`.P 5@h+_@P+8@9@!+0@Z.a@b@c@,@X+I+' d@e@",
"  f@g@J+h@i@j@7@;@k@l@m@W+n@t+y E.x+k@o@p@q@)+r@s@I+t@u@v@w@x@  ",
"  y@z@e+A@*+;@)+f.$@}+!+8@B@f C@D@I+Z.E@h@h@E@F@G@H@I@J@K@L@M@  ",
"  N@O@P@5@)+*+=+[.Q@f+9@!+O R@W+y L.`.n@1.S@g.]@h+G@9@ +i+T@U@  ",
"    V@W@X@]@h@S+Y@i ++Z@p+F+G.`@c.B@[+y i+K@!+ #P+e+6@;@.#+#    ",
"      @###E@]@R C+3+R+$#z ;+0@F+q+%#<+&#r.R@H.*#c.*#j+=#-#      ",
"      ;#>#,#E@P+k@Z.y+=+9+-+x.'#=@9@% b.b.q+G.q+(.b.)#!#t       ",
"        ~#{#]#^#/# #Q@C+3+(#9+w+_#:#L+'#U.a.=@<#a.[#}#|#        ",
"          1#2#3#h+4#j@~@5#Q+6#d+n+7#8#9#9#0#++0.a#b#c#          ",
"              d#e#^#^#f#g#h#i#Z.m+8+3+d+d+j#k#l#m#              ",
"                n#o#p#~@T+/#P+A@)+l+l+w.q#r#s#t#                ",
"                      u#v#w#x#y#z#A#B#C#D#t                     "};
