/* XPM */
static char * freicoin16_xpm[] = {
"16 16 179 2",
"  	c None",
". 	c #123741",
"+ 	c #46BAD6",
"@ 	c #4AD4F7",
"# 	c #48D8FB",
"$ 	c #44D7FB",
"% 	c #44D5F9",
"& 	c #4ED3F3",
"* 	c #3EA9C4",
"= 	c #2F8297",
"- 	c #53D6F7",
"; 	c #9EEDFF",
"> 	c #28D5FF",
", 	c #20D3FF",
"' 	c #14D1FF",
") 	c #10D0FF",
"! 	c #09CFFF",
"~ 	c #20D1FC",
"{ 	c #35A9C5",
"] 	c #338CA2",
"^ 	c #5FE7FF",
"/ 	c #6BE2FF",
"( 	c #CBF5FF",
"_ 	c #3DD9FF",
": 	c #16D1FF",
"< 	c #0FD0FF",
"[ 	c #08CEFF",
"} 	c #05CDFF",
"| 	c #05CEFF",
"1 	c #04D1FF",
"2 	c #31A5C1",
"3 	c #3D8C9F",
"4 	c #6FE7FF",
"5 	c #56DEFF",
"6 	c #81E7FF",
"7 	c #BAF1FF",
"8 	c #9FECFF",
"9 	c #0CCFFF",
"0 	c #03CDFF",
"a 	c #01CDFE",
"b 	c #01CCFE",
"c 	c #02CDFF",
"d 	c #03D2FF",
"e 	c #3195AD",
"f 	c #4DC3DE",
"g 	c #70D9F2",
"h 	c #6AE2FF",
"i 	c #50DDFF",
"j 	c #96EBFF",
"k 	c #C1F3FF",
"l 	c #B0EFFF",
"m 	c #25D4FF",
"n 	c #06CEFF",
"o 	c #02CDFE",
"p 	c #00CCFE",
"q 	c #1DCCF7",
"r 	c #276473",
"s 	c #7ADFF8",
"t 	c #83E7FF",
"u 	c #53DEFF",
"v 	c #96EAFF",
"w 	c #B2F0FF",
"x 	c #46DBFF",
"y 	c #53DDFF",
"z 	c #01CCFF",
"A 	c #02CCFE",
"B 	c #04CEFF",
"C 	c #08D0FF",
"D 	c #39C4E6",
"E 	c #8FE4F9",
"F 	c #6DE2FF",
"G 	c #57DEFF",
"H 	c #55DEFF",
"I 	c #93EAFF",
"J 	c #36D8FF",
"K 	c #51DDFF",
"L 	c #00CCFF",
"M 	c #07CEFF",
"N 	c #0FCFFF",
"O 	c #34D1F7",
"P 	c #95E8FB",
"Q 	c #88E8FF",
"R 	c #73E3FF",
"S 	c #5DE0FF",
"T 	c #69E2FF",
"U 	c #9BECFF",
"V 	c #3ED9FF",
"W 	c #79E4FF",
"X 	c #5BDFFF",
"Y 	c #84E6FF",
"Z 	c #86E7FF",
"` 	c #01CDFF",
" .	c #3CD4F9",
"..	c #94E7FB",
"+.	c #8BE8FF",
"@.	c #75E4FF",
"#.	c #6FE2FF",
"$.	c #9EECFF",
"%.	c #98EBFF",
"&.	c #5BDEFF",
"*.	c #ADEFFF",
"=.	c #A7EEFF",
"-.	c #A1EDFF",
";.	c #33D7FF",
">.	c #15D1FF",
",.	c #1ED2FF",
"'.	c #47D6F9",
").	c #9AE7FA",
"!.	c #BEF2FF",
"~.	c #8EE9FF",
"{.	c #8CE8FF",
"].	c #68E1FF",
"^.	c #64E0FF",
"/.	c #26D4FF",
"(.	c #1CD2FF",
"_.	c #22D3FF",
":.	c #2AD5FF",
"<.	c #53D8F7",
"[.	c #76D3E9",
"}.	c #A4EEFF",
"|.	c #8DE8FF",
"1.	c #85E7FF",
"2.	c #46DAFF",
"3.	c #7EE5FF",
"4.	c #B9F1FF",
"5.	c #8FE9FF",
"6.	c #27D5FF",
"7.	c #31D6FF",
"8.	c #38D8FF",
"9.	c #5DD7F4",
"0.	c #379FB5",
"a.	c #98DFF0",
"b.	c #9BEBFF",
"c.	c #BCF2FF",
"d.	c #66E1FF",
"e.	c #5DDFFF",
"f.	c #3BD9FF",
"g.	c #7AE4FF",
"h.	c #B1EFFF",
"i.	c #47DBFF",
"j.	c #4CD8F9",
"k.	c #22879F",
"l.	c #63ACBD",
"m.	c #ACF0FF",
"n.	c #9CEBFF",
"o.	c #94EAFF",
"p.	c #7EE6FF",
"q.	c #70E2FF",
"r.	c #65E1FF",
"s.	c #4BDCFF",
"t.	c #6CE2FF",
"u.	c #7FE6FF",
"v.	c #7FEAFF",
"w.	c #62AABB",
"x.	c #6FB7C8",
"y.	c #ABF0FF",
"z.	c #84E7FF",
"A.	c #7AE5FF",
"B.	c #73E4FF",
"C.	c #6DE3FF",
"D.	c #6AE1FF",
"E.	c #71EAFF",
"F.	c #3C97AD",
"G.	c #6BBFD2",
"H.	c #9FE9FC",
"I.	c #99EBFF",
"J.	c #90EAFF",
"K.	c #89E8FF",
"L.	c #85EAFF",
"M.	c #6DCAE0",
"N.	c #38899D",
"O.	c #47BCD7",
"P.	c #88E0F6",
"Q.	c #99E7F9",
"R.	c #99E6F9",
"S.	c #93E5F9",
"T.	c #86E2F9",
"U.	c #61C1D9",
"V.	c #388698",
"        . + @ # $ % & *         ",
"      = - ; > , ' ) ! ~ {       ",
"    ] ^ / ( _ : < [ } | 1 2     ",
"  3 4 5 6 7 8 9 ! 0 a b c d e   ",
"f g h i j k l m n o b p b | q r ",
"s t / u v w x y z A b b p B C D ",
"E t F G H I J K L L p b 0 M N O ",
"P Q R S T U V W X Y Z ` M 9 '  .",
"..+.@.#.$.%.&.*.=.-.G ;.) >.,.'.",
").w !.k 7 ~.{.{.].;.^./.(._.:.<.",
"[.}.+.=.|.1.2.3.4.Z 5.8 6.7.8.9.",
"0.a.b.{.c.d.e.i f.g.$.w h.i.j.k.",
"  l.m.n.o.p.q.r.S 5 s.t.u.v.w.  ",
"    x.y.n.5.z.A.B.C./ D.E.F.    ",
"      G.H.}.I.J.K.z.L.M.N.      ",
"        O.P.Q.R.S.T.U.V.        "};
